<svg width="199" height="32" viewBox="0 0 199 32" fill="none" xmlns="http://www.w3.org/2000/svg">
<circle cx="2.44429" cy="15.8288" r="2.44429" fill="#333333"/>
<path d="M29.5952 0.979074C13.9834 -1.74175 9.51476 9.31492 9.23193 15.1833L20.9691 15.1834C27.7569 14.3831 29.5481 5.3804 29.5952 0.979074Z" fill="#333333" stroke="#333333" stroke-width="0.283385"/>
<path d="M29.5952 30.6784C13.9834 33.3992 9.51476 22.3426 9.23193 16.4741L20.9691 16.4741C27.7569 17.2744 29.5481 26.2771 29.5952 30.6784Z" fill="#333333" stroke="#333333" stroke-width="0.283385"/>
<path d="M36.3005 3.29872C30.923 8.32644 30.8409 23.7138 31.5199 30.8847H43.1303V20.2492C45.7375 30.6914 51.2779 31.6904 53.7222 30.8847C55.2437 -1.77723 42.4112 -2.41459 36.3005 3.29872Z" fill="#333333"/>
<ellipse cx="40.9457" cy="10.7759" rx="2.12073" ry="2.07648" fill="#F6F5F0"/>
<ellipse cx="44.1268" cy="10.7759" rx="2.12073" ry="2.07648" fill="#F6F5F0"/>
<ellipse cx="44.1268" cy="13.6309" rx="2.12073" ry="2.07648" fill="#F6F5F0"/>
<ellipse cx="40.9457" cy="13.6309" rx="2.12073" ry="2.07648" fill="#F6F5F0"/>
<rect x="55.4751" y="0.555664" width="8.555" height="30.5462" rx="1.08585" fill="#333333"/>
<path d="M64.6482 1.64151C64.6482 1.04181 65.1343 0.555664 65.734 0.555664H67.4999C71.9997 0.555664 75.6475 4.20348 75.6475 8.70329V30.9686H65.734C65.1343 30.9686 64.6482 30.4825 64.6482 29.8828V1.64151Z" fill="#333333"/>
<rect x="77.2764" y="0.555664" width="8.68677" height="30.4037" rx="1.54799" fill="#333333"/>
<ellipse cx="91.4405" cy="15.8288" rx="13.8445" ry="15.2731" fill="#333333"/>
<ellipse cx="89.6666" cy="14.9278" rx="2.12073" ry="2.04918" fill="#F6F5F0"/>
<ellipse cx="92.848" cy="14.9278" rx="2.12073" ry="2.04918" fill="#F6F5F0"/>
<ellipse cx="92.848" cy="17.7455" rx="2.12073" ry="2.04918" fill="#F6F5F0"/>
<ellipse cx="89.6666" cy="17.7455" rx="2.12073" ry="2.04918" fill="#F6F5F0"/>
<path d="M113.582 0.555664H131.1V9.42391H118.471C116.562 9.42391 116.358 12.1336 118.471 12.1336H131.1V20.0165H118.471C121.043 23.7116 126.211 22.8905 131.1 21.9873V31.1018H113.582C105.155 31.1018 106.521 19.6881 108.083 15.3361C104.824 5.48247 110.654 0.555664 113.582 0.555664Z" fill="#333333" stroke="#333333" stroke-width="0.407381"/>
<path d="M144.884 31.1018C147.212 7.6831 137.751 0.979916 132.729 0.555664L132.729 18.1621C133.413 28.3442 141.118 31.0311 144.884 31.1018Z" fill="#333333" stroke="#333333" stroke-width="0.334909"/>
<path d="M158.486 16.1064C148.279 17.4394 145.407 26.6588 145.246 31.1018H158.486V16.1064Z" fill="#333333" stroke="#333333" stroke-width="0.48145"/>
<path d="M173.69 1.14444C160.302 1.65184 159.994 12.3892 160.85 16.1108L179.058 15.4207C189.093 15.0404 189.369 4.48298 189.22 0.555865L173.69 1.14444Z" fill="#333333" stroke="#333333" stroke-width="1.0718"/>
<path d="M173.7 16.6323C160.303 16.6323 159.588 27.3503 160.303 31.1016H178.523C188.566 31.1016 189.241 20.5623 189.241 16.6323H173.7Z" fill="#333333" stroke="#333333" stroke-width="1.0718"/>
<circle cx="196.556" cy="15.8288" r="2.44429" fill="#333333"/>
</svg>
